<svg width="22" height="31" viewBox="0 0 22 31" fill="none" xmlns="http://www.w3.org/2000/svg">
<path d="M6.64453 12.7356C6.7228 12.6573 6.84976 12.6575 6.9278 12.736L21.0538 26.9467C21.1792 27.0729 21.0899 27.2877 20.912 27.2877L14.0521 27.2877C13.9991 27.2877 13.9482 27.2667 13.9107 27.2291L3.17228 16.4907C3.09417 16.4126 3.09417 16.286 3.17228 16.2079L6.64453 12.7356Z" fill="black"/>
<path d="M15.7092 2.94531C15.888 2.94531 15.9769 3.16205 15.8497 3.28766L3.19868 15.7744C3.07232 15.8991 2.85819 15.8096 2.85819 15.632L2.85819 10.4782C2.85819 10.4244 2.8799 10.3728 2.9184 10.3352L10.4218 3.00227C10.4592 2.96576 10.5094 2.94531 10.5616 2.94531L15.7092 2.94531Z" fill="black"/>
</svg>
