<svg width="133" height="31" viewBox="0 0 133 31" fill="none" xmlns="http://www.w3.org/2000/svg">
<path d="M24.976 20.4H25.384V25.632H28.608V26H24.976V20.4ZM34.7675 24.424H31.5195L30.8075 26H30.3675L32.9435 20.4H33.3515L35.9275 26H35.4875L34.7675 24.424ZM34.6155 24.08L33.1435 20.848L31.6795 24.08H34.6155ZM45.7831 20.4L43.8871 26H43.4551L41.7191 20.976L39.9751 26H39.5431L37.6391 20.4H38.0711L39.7751 25.44L41.5271 20.4H41.9191L43.6631 25.448L45.3831 20.4H45.7831ZM56.347 26.08L55.539 25.232C55.3097 25.4987 55.0377 25.7013 54.723 25.84C54.4083 25.9733 54.059 26.04 53.675 26.04C53.323 26.04 53.0083 25.9813 52.731 25.864C52.4537 25.7467 52.2377 25.5813 52.083 25.368C51.9283 25.1547 51.851 24.912 51.851 24.64C51.851 24.3147 51.9603 24.0187 52.179 23.752C52.3977 23.48 52.771 23.1893 53.299 22.88L53.291 22.864C53.0137 22.576 52.8243 22.336 52.723 22.144C52.6217 21.9467 52.571 21.736 52.571 21.512C52.571 21.1653 52.691 20.888 52.931 20.68C53.171 20.472 53.4937 20.368 53.899 20.368C54.2777 20.368 54.5763 20.464 54.795 20.656C55.019 20.8427 55.131 21.1013 55.131 21.432C55.131 21.7093 55.035 21.96 54.843 22.184C54.6563 22.4027 54.3257 22.6507 53.851 22.928L55.507 24.68C55.6883 24.36 55.8217 23.9813 55.907 23.544L56.235 23.648C56.1283 24.1653 55.9683 24.5947 55.755 24.936L56.587 25.816L56.347 26.08ZM52.947 21.512C52.947 21.688 52.9923 21.8587 53.083 22.024C53.1737 22.184 53.3523 22.4053 53.619 22.688C54.0617 22.432 54.3657 22.216 54.531 22.04C54.6963 21.8587 54.779 21.6587 54.779 21.44C54.779 21.2053 54.7017 21.0213 54.547 20.888C54.3923 20.7493 54.1763 20.68 53.899 20.68C53.6003 20.68 53.3657 20.7573 53.195 20.912C53.0297 21.0613 52.947 21.2613 52.947 21.512ZM53.691 25.704C54.3737 25.704 54.9097 25.4613 55.299 24.976L53.531 23.112C53.0403 23.4 52.7017 23.6533 52.515 23.872C52.3337 24.0907 52.243 24.336 52.243 24.608C52.243 24.9333 52.3763 25.1973 52.643 25.4C52.915 25.6027 53.2643 25.704 53.691 25.704ZM65.3559 26.04C64.8065 26.04 64.3105 25.9173 63.8679 25.672C63.4305 25.4267 63.0839 25.088 62.8279 24.656C62.5772 24.224 62.4519 23.7387 62.4519 23.2C62.4519 22.6613 62.5772 22.176 62.8279 21.744C63.0839 21.312 63.4305 20.9733 63.8679 20.728C64.3105 20.4827 64.8065 20.36 65.3559 20.36C65.7612 20.36 66.1345 20.4267 66.4759 20.56C66.8172 20.688 67.1079 20.88 67.3479 21.136L67.0919 21.4C66.6439 20.9573 66.0705 20.736 65.3719 20.736C64.9025 20.736 64.4759 20.8427 64.0919 21.056C63.7079 21.2693 63.4065 21.5653 63.1879 21.944C62.9692 22.3173 62.8599 22.736 62.8599 23.2C62.8599 23.664 62.9692 24.0853 63.1879 24.464C63.4065 24.8373 63.7079 25.1307 64.0919 25.344C64.4759 25.5573 64.9025 25.664 65.3719 25.664C66.0652 25.664 66.6385 25.44 67.0919 24.992L67.3479 25.256C67.1079 25.512 66.8145 25.7067 66.4679 25.84C66.1265 25.9733 65.7559 26.04 65.3559 26.04ZM72.6132 26.04C72.0639 26.04 71.5679 25.9173 71.1252 25.672C70.6826 25.4213 70.3332 25.08 70.0772 24.648C69.8266 24.216 69.7012 23.7333 69.7012 23.2C69.7012 22.6667 69.8266 22.184 70.0772 21.752C70.3332 21.32 70.6826 20.9813 71.1252 20.736C71.5679 20.4853 72.0639 20.36 72.6132 20.36C73.1626 20.36 73.6586 20.4827 74.1012 20.728C74.5439 20.9733 74.8906 21.312 75.1412 21.744C75.3972 22.176 75.5252 22.6613 75.5252 23.2C75.5252 23.7387 75.3972 24.224 75.1412 24.656C74.8906 25.088 74.5439 25.4267 74.1012 25.672C73.6586 25.9173 73.1626 26.04 72.6132 26.04ZM72.6132 25.664C73.0826 25.664 73.5066 25.5573 73.8852 25.344C74.2639 25.1307 74.5626 24.8373 74.7812 24.464C74.9999 24.0853 75.1092 23.664 75.1092 23.2C75.1092 22.736 74.9999 22.3173 74.7812 21.944C74.5626 21.5653 74.2639 21.2693 73.8852 21.056C73.5066 20.8427 73.0826 20.736 72.6132 20.736C72.1439 20.736 71.7172 20.8427 71.3332 21.056C70.9546 21.2693 70.6559 21.5653 70.4372 21.944C70.2186 22.3173 70.1092 22.736 70.1092 23.2C70.1092 23.664 70.2186 24.0853 70.4372 24.464C70.6559 24.8373 70.9546 25.1307 71.3332 25.344C71.7172 25.5573 72.1439 25.664 72.6132 25.664ZM83.1404 20.4V26H82.8044L78.9884 21.136V26H78.5804V20.4H78.9244L82.7324 25.264V20.4H83.1404ZM88.208 26.04C87.7973 26.04 87.4053 25.9707 87.032 25.832C86.664 25.688 86.376 25.504 86.168 25.28L86.352 24.976C86.5493 25.184 86.8133 25.3547 87.144 25.488C87.48 25.616 87.832 25.68 88.2 25.68C88.7333 25.68 89.136 25.5787 89.408 25.376C89.68 25.1733 89.816 24.9093 89.816 24.584C89.816 24.3333 89.744 24.1333 89.6 23.984C89.456 23.8347 89.2773 23.72 89.064 23.64C88.8507 23.56 88.5627 23.4773 88.2 23.392C87.7893 23.2907 87.4587 23.192 87.208 23.096C86.9627 23 86.752 22.8533 86.576 22.656C86.4053 22.4533 86.32 22.184 86.32 21.848C86.32 21.576 86.392 21.328 86.536 21.104C86.68 20.8747 86.8987 20.6933 87.192 20.56C87.4907 20.4267 87.8613 20.36 88.304 20.36C88.6133 20.36 88.9173 20.4053 89.216 20.496C89.5147 20.5867 89.7733 20.7093 89.992 20.864L89.84 21.192C89.616 21.0373 89.368 20.92 89.096 20.84C88.8293 20.76 88.5653 20.72 88.304 20.72C87.7867 20.72 87.3947 20.824 87.128 21.032C86.8613 21.24 86.728 21.5093 86.728 21.84C86.728 22.0907 86.8 22.2907 86.944 22.44C87.088 22.5893 87.2667 22.704 87.48 22.784C87.6933 22.864 87.984 22.9493 88.352 23.04C88.7627 23.1413 89.0907 23.24 89.336 23.336C89.5813 23.432 89.7893 23.5787 89.96 23.776C90.136 23.968 90.224 24.2293 90.224 24.56C90.224 24.832 90.1493 25.08 90 25.304C89.856 25.528 89.632 25.7067 89.328 25.84C89.024 25.9733 88.6507 26.04 88.208 26.04ZM95.443 26.04C94.7337 26.04 94.1817 25.8347 93.787 25.424C93.3977 25.0133 93.203 24.4133 93.203 23.624V20.4H93.611V23.608C93.611 24.296 93.7683 24.8107 94.083 25.152C94.3977 25.4933 94.8537 25.664 95.451 25.664C96.043 25.664 96.4963 25.4933 96.811 25.152C97.1257 24.8107 97.283 24.296 97.283 23.608V20.4H97.691V23.624C97.691 24.4133 97.4937 25.0133 97.099 25.424C96.7043 25.8347 96.1523 26.04 95.443 26.04ZM101.235 20.4H101.643V25.632H104.867V26H101.235V20.4ZM108.103 20.768H106.087V20.4H110.527V20.768H108.511V26H108.103V20.768ZM113.179 20.4H113.587V26H113.179V20.4ZM121.738 20.4V26H121.402L117.586 21.136V26H117.178V20.4H117.522L121.33 25.264V20.4H121.738ZM129.334 23.224H129.726V25.32C129.48 25.5547 129.182 25.7333 128.83 25.856C128.483 25.9787 128.115 26.04 127.726 26.04C127.171 26.04 126.67 25.9173 126.222 25.672C125.779 25.4267 125.43 25.088 125.174 24.656C124.923 24.224 124.798 23.7387 124.798 23.2C124.798 22.6613 124.923 22.176 125.174 21.744C125.43 21.312 125.779 20.9733 126.222 20.728C126.67 20.4827 127.174 20.36 127.734 20.36C128.144 20.36 128.52 20.4267 128.862 20.56C129.208 20.688 129.504 20.8773 129.75 21.128L129.494 21.4C129.259 21.1653 128.995 20.9973 128.702 20.896C128.414 20.7893 128.094 20.736 127.742 20.736C127.262 20.736 126.827 20.8427 126.438 21.056C126.054 21.2693 125.752 21.5653 125.534 21.944C125.315 22.3173 125.206 22.736 125.206 23.2C125.206 23.6587 125.315 24.0773 125.534 24.456C125.758 24.8293 126.062 25.1253 126.446 25.344C126.83 25.5573 127.262 25.664 127.742 25.664C128.382 25.664 128.912 25.4933 129.334 25.152V23.224Z" fill="#494747"/>
<path d="M28.28 10.48L25.768 13.056V16H24.952V4.8H25.768V12L32.76 4.8H33.752L28.824 9.888L34.088 16H33.096L28.28 10.48ZM42.7081 12.848H36.2121L34.7881 16H33.9081L39.0601 4.8H39.8761L45.0281 16H44.1481L42.7081 12.848ZM42.4041 12.16L39.4601 5.696L36.5321 12.16H42.4041ZM38.1001 3.456C37.9401 3.456 37.8015 3.40267 37.6841 3.296C37.5775 3.17867 37.5241 3.04 37.5241 2.88C37.5241 2.70933 37.5775 2.57067 37.6841 2.464C37.8015 2.35733 37.9401 2.304 38.1001 2.304C38.2601 2.304 38.3935 2.36267 38.5001 2.48C38.6175 2.58667 38.6761 2.72 38.6761 2.88C38.6761 3.04 38.6175 3.17867 38.5001 3.296C38.3828 3.40267 38.2495 3.456 38.1001 3.456ZM40.8521 3.456C40.7028 3.456 40.5695 3.40267 40.4521 3.296C40.3348 3.17867 40.2761 3.04 40.2761 2.88C40.2761 2.72 40.3295 2.58667 40.4361 2.48C40.5535 2.36267 40.6921 2.304 40.8521 2.304C41.0121 2.304 41.1455 2.35733 41.2521 2.464C41.3695 2.57067 41.4281 2.70933 41.4281 2.88C41.4281 3.04 41.3695 3.17867 41.2521 3.296C41.1455 3.40267 41.0121 3.456 40.8521 3.456ZM47.0614 4.8H47.8774V15.264H54.3254V16H47.0614V4.8ZM56.4208 4.8H57.2368V15.264H63.6848V16H56.4208V4.8ZM73.5081 15.264V16H65.7801V4.8H73.2681V5.536H66.5961V9.952H72.5641V10.672H66.5961V15.264H73.5081ZM85.6033 4.8V16H84.9313L77.2993 6.272V16H76.4833V4.8H77.1713L84.7873 14.528V4.8H85.6033ZM90.3305 5.536V10.32H96.2985V11.056H90.3305V16H89.5145V4.8H97.0025V5.536H90.3305ZM104.22 16.08C103.121 16.08 102.129 15.8347 101.244 15.344C100.358 14.8427 99.6596 14.16 99.1476 13.296C98.6463 12.432 98.3956 11.4667 98.3956 10.4C98.3956 9.33333 98.6463 8.368 99.1476 7.504C99.6596 6.64 100.358 5.96267 101.244 5.472C102.129 4.97067 103.121 4.72 104.22 4.72C105.318 4.72 106.31 4.96533 107.196 5.456C108.081 5.94667 108.774 6.624 109.276 7.488C109.788 8.352 110.044 9.32267 110.044 10.4C110.044 11.4773 109.788 12.448 109.276 13.312C108.774 14.176 108.081 14.8533 107.196 15.344C106.31 15.8347 105.318 16.08 104.22 16.08ZM104.22 15.328C105.158 15.328 106.006 15.1147 106.764 14.688C107.521 14.2613 108.118 13.6747 108.556 12.928C108.993 12.1707 109.212 11.328 109.212 10.4C109.212 9.472 108.993 8.63467 108.556 7.888C108.118 7.13067 107.521 6.53867 106.764 6.112C106.006 5.68533 105.158 5.472 104.22 5.472C103.281 5.472 102.428 5.68533 101.66 6.112C100.902 6.53867 100.305 7.13067 99.8676 7.888C99.4303 8.63467 99.2116 9.472 99.2116 10.4C99.2116 11.328 99.4303 12.1707 99.8676 12.928C100.305 13.6747 100.902 14.2613 101.66 14.688C102.428 15.1147 103.281 15.328 104.22 15.328ZM120.65 16L117.978 12.256C117.583 12.3093 117.221 12.336 116.89 12.336H113.69V16H112.874V4.8H116.89C118.298 4.8 119.402 5.136 120.202 5.808C121.002 6.46933 121.402 7.392 121.402 8.576C121.402 9.46133 121.173 10.208 120.714 10.816C120.266 11.4133 119.621 11.8347 118.778 12.08L121.578 16H120.65ZM116.89 11.616C118.085 11.616 118.997 11.3547 119.626 10.832C120.255 10.2987 120.57 9.54667 120.57 8.576C120.57 7.60533 120.255 6.85867 119.626 6.336C118.997 5.80267 118.085 5.536 116.89 5.536H113.69V11.616H116.89ZM127.334 16.08C126.512 16.08 125.728 15.9413 124.982 15.664C124.246 15.376 123.67 15.008 123.254 14.56L123.622 13.952C124.016 14.368 124.544 14.7093 125.206 14.976C125.878 15.232 126.582 15.36 127.318 15.36C128.384 15.36 129.19 15.1573 129.734 14.752C130.278 14.3467 130.55 13.8187 130.55 13.168C130.55 12.6667 130.406 12.2667 130.118 11.968C129.83 11.6693 129.472 11.44 129.046 11.28C128.619 11.12 128.043 10.9547 127.318 10.784C126.496 10.5813 125.835 10.384 125.334 10.192C124.843 10 124.422 9.70667 124.07 9.312C123.728 8.90667 123.558 8.368 123.558 7.696C123.558 7.152 123.702 6.656 123.99 6.208C124.278 5.74933 124.715 5.38667 125.302 5.12C125.899 4.85333 126.64 4.72 127.526 4.72C128.144 4.72 128.752 4.81067 129.35 4.992C129.947 5.17333 130.464 5.41867 130.902 5.728L130.598 6.384C130.15 6.07467 129.654 5.84 129.11 5.68C128.576 5.52 128.048 5.44 127.526 5.44C126.491 5.44 125.707 5.648 125.174 6.064C124.64 6.48 124.374 7.01867 124.374 7.68C124.374 8.18133 124.518 8.58133 124.806 8.88C125.094 9.17867 125.451 9.408 125.878 9.568C126.304 9.728 126.886 9.89867 127.622 10.08C128.443 10.2827 129.099 10.48 129.59 10.672C130.08 10.864 130.496 11.1573 130.838 11.552C131.19 11.936 131.366 12.4587 131.366 13.12C131.366 13.664 131.216 14.16 130.918 14.608C130.63 15.056 130.182 15.4133 129.574 15.68C128.966 15.9467 128.219 16.08 127.334 16.08Z" fill="black"/>
<path d="M7.64453 12.7356C7.7228 12.6573 7.84976 12.6575 7.9278 12.736L22.0538 26.9467C22.1792 27.0729 22.0899 27.2877 21.912 27.2877L15.0521 27.2877C14.9991 27.2877 14.9482 27.2667 14.9107 27.2291L4.17228 16.4907C4.09417 16.4126 4.09417 16.286 4.17228 16.2079L7.64453 12.7356Z" fill="#F8BD59"/>
<path d="M7.64354 12.7366C7.72219 12.6579 7.84992 12.6586 7.92778 12.738L11.9446 16.8358C12.0378 16.9309 12.0139 17.0887 11.8967 17.1519L7.43831 19.555C7.36053 19.597 7.26447 19.5829 7.20199 19.5204L4.17228 16.4907C4.09417 16.4126 4.09417 16.286 4.17228 16.2079L7.64354 12.7366Z" fill="url(#paint0_linear_704_699)"/>
<path d="M16.4937 3.01368C16.675 3.00878 16.7687 3.22843 16.6397 3.3559L3.83569 16.0023C3.70749 16.1289 3.49035 16.0347 3.49522 15.8546L3.63211 10.7898C3.63351 10.7379 3.65505 10.6885 3.69216 10.6522L11.3009 3.20737C11.337 3.17211 11.385 3.15176 11.4354 3.15039L16.4937 3.01368Z" fill="#F8BD59"/>
<defs>
<linearGradient id="paint0_linear_704_699" x1="6.10494" y1="14.6049" x2="8.85572" y2="17.3557" gradientUnits="userSpaceOnUse">
<stop stop-color="#E4A333"/>
<stop offset="1" stop-color="#F8BD59" stop-opacity="0"/>
</linearGradient>
</defs>
</svg>
