<svg width="142" height="31" viewBox="0 0 142 31" fill="none" xmlns="http://www.w3.org/2000/svg">
<path d="M4.64478 14.7356C4.72305 14.6573 4.85001 14.6575 4.92804 14.736L19.0541 28.9467C19.1795 29.0729 19.0901 29.2877 18.9122 29.2877L12.0524 29.2877C11.9993 29.2877 11.9485 29.2667 11.911 29.2291L1.17252 18.4907C1.09441 18.4126 1.09441 18.286 1.17252 18.2079L4.64478 14.7356Z" fill="black"/>
<path d="M13.7094 4.94531C13.8882 4.94531 13.9772 5.16205 13.8499 5.28766L1.19893 17.7744C1.07256 17.8991 0.858433 17.8096 0.858433 17.632L0.858433 12.4782C0.858433 12.4244 0.88014 12.3728 0.918646 12.3352L8.42206 5.00227C8.45942 4.96576 8.5096 4.94531 8.56184 4.94531L13.7094 4.94531Z" fill="black"/>
<path d="M25.94 11.79L23.114 14.688V18H22.196V5.4H23.114V13.5L30.98 5.4H32.096L26.552 11.124L32.474 18H31.358L25.94 11.79ZM42.1716 14.454H34.8636L33.2616 18H32.2716L38.0676 5.4H38.9856L44.7816 18H43.7916L42.1716 14.454ZM41.8296 13.68L38.5176 6.408L35.2236 13.68H41.8296ZM36.9876 3.888C36.8076 3.888 36.6516 3.828 36.5196 3.708C36.3996 3.576 36.3396 3.42 36.3396 3.24C36.3396 3.048 36.3996 2.892 36.5196 2.772C36.6516 2.652 36.8076 2.592 36.9876 2.592C37.1676 2.592 37.3176 2.658 37.4376 2.79C37.5696 2.91 37.6356 3.06 37.6356 3.24C37.6356 3.42 37.5696 3.576 37.4376 3.708C37.3056 3.828 37.1556 3.888 36.9876 3.888ZM40.0836 3.888C39.9156 3.888 39.7656 3.828 39.6336 3.708C39.5016 3.576 39.4356 3.42 39.4356 3.24C39.4356 3.06 39.4956 2.91 39.6156 2.79C39.7476 2.658 39.9036 2.592 40.0836 2.592C40.2636 2.592 40.4136 2.652 40.5336 2.772C40.6656 2.892 40.7316 3.048 40.7316 3.24C40.7316 3.42 40.6656 3.576 40.5336 3.708C40.4136 3.828 40.2636 3.888 40.0836 3.888ZM47.069 5.4H47.987V17.172H55.241V18H47.069V5.4ZM57.5983 5.4H58.5163V17.172H65.7703V18H57.5983V5.4ZM76.8216 17.172V18H68.1276V5.4H76.5516V6.228H69.0456V11.196H75.7596V12.006H69.0456V17.172H76.8216ZM90.4287 5.4V18H89.6727L81.0867 7.056V18H80.1687V5.4H80.9427L89.5107 16.344V5.4H90.4287ZM95.7468 6.228V11.61H102.461V12.438H95.7468V18H94.8288V5.4H103.253V6.228H95.7468ZM111.372 18.09C110.136 18.09 109.02 17.814 108.024 17.262C107.028 16.698 106.242 15.93 105.666 14.958C105.102 13.986 104.82 12.9 104.82 11.7C104.82 10.5 105.102 9.414 105.666 8.442C106.242 7.47 107.028 6.708 108.024 6.156C109.02 5.592 110.136 5.31 111.372 5.31C112.608 5.31 113.724 5.586 114.72 6.138C115.716 6.69 116.496 7.452 117.06 8.424C117.636 9.396 117.924 10.488 117.924 11.7C117.924 12.912 117.636 14.004 117.06 14.976C116.496 15.948 115.716 16.71 114.72 17.262C113.724 17.814 112.608 18.09 111.372 18.09ZM111.372 17.244C112.428 17.244 113.382 17.004 114.234 16.524C115.086 16.044 115.758 15.384 116.25 14.544C116.742 13.692 116.988 12.744 116.988 11.7C116.988 10.656 116.742 9.714 116.25 8.874C115.758 8.022 115.086 7.356 114.234 6.876C113.382 6.396 112.428 6.156 111.372 6.156C110.316 6.156 109.356 6.396 108.492 6.876C107.64 7.356 106.968 8.022 106.476 8.874C105.984 9.714 105.738 10.656 105.738 11.7C105.738 12.744 105.984 13.692 106.476 14.544C106.968 15.384 107.64 16.044 108.492 16.524C109.356 17.004 110.316 17.244 111.372 17.244ZM129.856 18L126.85 13.788C126.406 13.848 125.998 13.878 125.626 13.878H122.026V18H121.108V5.4H125.626C127.21 5.4 128.452 5.778 129.352 6.534C130.252 7.278 130.702 8.316 130.702 9.648C130.702 10.644 130.444 11.484 129.928 12.168C129.424 12.84 128.698 13.314 127.75 13.59L130.9 18H129.856ZM125.626 13.068C126.97 13.068 127.996 12.774 128.704 12.186C129.412 11.586 129.766 10.74 129.766 9.648C129.766 8.556 129.412 7.716 128.704 7.128C127.996 6.528 126.97 6.228 125.626 6.228H122.026V13.068H125.626ZM137.375 18.09C136.451 18.09 135.569 17.934 134.729 17.622C133.901 17.298 133.253 16.884 132.785 16.38L133.199 15.696C133.643 16.164 134.237 16.548 134.981 16.848C135.737 17.136 136.529 17.28 137.357 17.28C138.557 17.28 139.463 17.052 140.075 16.596C140.687 16.14 140.993 15.546 140.993 14.814C140.993 14.25 140.831 13.8 140.507 13.464C140.183 13.128 139.781 12.87 139.301 12.69C138.821 12.51 138.173 12.324 137.357 12.132C136.433 11.904 135.689 11.682 135.125 11.466C134.573 11.25 134.099 10.92 133.703 10.476C133.319 10.02 133.127 9.414 133.127 8.658C133.127 8.046 133.289 7.488 133.613 6.984C133.937 6.468 134.429 6.06 135.089 5.76C135.761 5.46 136.595 5.31 137.591 5.31C138.287 5.31 138.971 5.412 139.643 5.616C140.315 5.82 140.897 6.096 141.389 6.444L141.047 7.182C140.543 6.834 139.985 6.57 139.373 6.39C138.773 6.21 138.179 6.12 137.591 6.12C136.427 6.12 135.545 6.354 134.945 6.822C134.345 7.29 134.045 7.896 134.045 8.64C134.045 9.204 134.207 9.654 134.531 9.99C134.855 10.326 135.257 10.584 135.737 10.764C136.217 10.944 136.871 11.136 137.699 11.34C138.623 11.568 139.361 11.79 139.913 12.006C140.465 12.222 140.933 12.552 141.317 12.996C141.713 13.428 141.911 14.016 141.911 14.76C141.911 15.372 141.743 15.93 141.407 16.434C141.083 16.938 140.579 17.34 139.895 17.64C139.211 17.94 138.371 18.09 137.375 18.09Z" fill="black"/>
<path d="M22.22 22H22.73V28.54H26.76V29H22.22V22ZM33.6594 27.03H29.5994L28.7094 29H28.1594L31.3794 22H31.8894L35.1094 29H34.5594L33.6594 27.03ZM33.4694 26.6L31.6294 22.56L29.7994 26.6H33.4694ZM46.6288 22L44.2588 29H43.7188L41.5488 22.72L39.3688 29H38.8288L36.4488 22H36.9888L39.1188 28.3L41.3088 22H41.7988L43.9788 28.31L46.1288 22H46.6288ZM58.2338 29.1L57.2238 28.04C56.9371 28.3733 56.5971 28.6267 56.2038 28.8C55.8104 28.9667 55.3738 29.05 54.8938 29.05C54.4538 29.05 54.0604 28.9767 53.7138 28.83C53.3671 28.6833 53.0971 28.4767 52.9038 28.21C52.7104 27.9433 52.6138 27.64 52.6138 27.3C52.6138 26.8933 52.7504 26.5233 53.0238 26.19C53.2971 25.85 53.7638 25.4867 54.4238 25.1L54.4138 25.08C54.0671 24.72 53.8304 24.42 53.7038 24.18C53.5771 23.9333 53.5138 23.67 53.5138 23.39C53.5138 22.9567 53.6638 22.61 53.9638 22.35C54.2638 22.09 54.6671 21.96 55.1738 21.96C55.6471 21.96 56.0204 22.08 56.2938 22.32C56.5738 22.5533 56.7138 22.8767 56.7138 23.29C56.7138 23.6367 56.5938 23.95 56.3538 24.23C56.1204 24.5033 55.7071 24.8133 55.1138 25.16L57.1838 27.35C57.4104 26.95 57.5771 26.4767 57.6838 25.93L58.0938 26.06C57.9604 26.7067 57.7604 27.2433 57.4938 27.67L58.5338 28.77L58.2338 29.1ZM53.9838 23.39C53.9838 23.61 54.0404 23.8233 54.1538 24.03C54.2671 24.23 54.4904 24.5067 54.8238 24.86C55.3771 24.54 55.7571 24.27 55.9638 24.05C56.1704 23.8233 56.2738 23.5733 56.2738 23.3C56.2738 23.0067 56.1771 22.7767 55.9838 22.61C55.7904 22.4367 55.5204 22.35 55.1738 22.35C54.8004 22.35 54.5071 22.4467 54.2938 22.64C54.0871 22.8267 53.9838 23.0767 53.9838 23.39ZM54.9138 28.63C55.7671 28.63 56.4371 28.3267 56.9238 27.72L54.7138 25.39C54.1004 25.75 53.6771 26.0667 53.4438 26.34C53.2171 26.6133 53.1038 26.92 53.1038 27.26C53.1038 27.6667 53.2704 27.9967 53.6038 28.25C53.9438 28.5033 54.3804 28.63 54.9138 28.63ZM67.8948 29.05C67.2082 29.05 66.5882 28.8967 66.0348 28.59C65.4882 28.2833 65.0548 27.86 64.7348 27.32C64.4215 26.78 64.2648 26.1733 64.2648 25.5C64.2648 24.8267 64.4215 24.22 64.7348 23.68C65.0548 23.14 65.4882 22.7167 66.0348 22.41C66.5882 22.1033 67.2082 21.95 67.8948 21.95C68.4015 21.95 68.8682 22.0333 69.2948 22.2C69.7215 22.36 70.0848 22.6 70.3848 22.92L70.0648 23.25C69.5048 22.6967 68.7882 22.42 67.9148 22.42C67.3282 22.42 66.7948 22.5533 66.3148 22.82C65.8348 23.0867 65.4582 23.4567 65.1848 23.93C64.9115 24.3967 64.7748 24.92 64.7748 25.5C64.7748 26.08 64.9115 26.6067 65.1848 27.08C65.4582 27.5467 65.8348 27.9133 66.3148 28.18C66.7948 28.4467 67.3282 28.58 67.9148 28.58C68.7815 28.58 69.4982 28.3 70.0648 27.74L70.3848 28.07C70.0848 28.39 69.7182 28.6333 69.2848 28.8C68.8582 28.9667 68.3948 29.05 67.8948 29.05ZM76.1666 29.05C75.4799 29.05 74.8599 28.8967 74.3066 28.59C73.7532 28.2767 73.3166 27.85 72.9966 27.31C72.6832 26.77 72.5266 26.1667 72.5266 25.5C72.5266 24.8333 72.6832 24.23 72.9966 23.69C73.3166 23.15 73.7532 22.7267 74.3066 22.42C74.8599 22.1067 75.4799 21.95 76.1666 21.95C76.8532 21.95 77.4732 22.1033 78.0266 22.41C78.5799 22.7167 79.0132 23.14 79.3266 23.68C79.6466 24.22 79.8066 24.8267 79.8066 25.5C79.8066 26.1733 79.6466 26.78 79.3266 27.32C79.0132 27.86 78.5799 28.2833 78.0266 28.59C77.4732 28.8967 76.8532 29.05 76.1666 29.05ZM76.1666 28.58C76.7532 28.58 77.2832 28.4467 77.7566 28.18C78.2299 27.9133 78.6032 27.5467 78.8766 27.08C79.1499 26.6067 79.2866 26.08 79.2866 25.5C79.2866 24.92 79.1499 24.3967 78.8766 23.93C78.6032 23.4567 78.2299 23.0867 77.7566 22.82C77.2832 22.5533 76.7532 22.42 76.1666 22.42C75.5799 22.42 75.0466 22.5533 74.5666 22.82C74.0932 23.0867 73.7199 23.4567 73.4466 23.93C73.1732 24.3967 73.0366 24.92 73.0366 25.5C73.0366 26.08 73.1732 26.6067 73.4466 27.08C73.7199 27.5467 74.0932 27.9133 74.5666 28.18C75.0466 28.4467 75.5799 28.58 76.1666 28.58ZM88.5255 22V29H88.1055L83.3355 22.92V29H82.8255V22H83.2555L88.0155 28.08V22H88.5255ZM94.06 29.05C93.5467 29.05 93.0567 28.9633 92.59 28.79C92.13 28.61 91.77 28.38 91.51 28.1L91.74 27.72C91.9867 27.98 92.3167 28.1933 92.73 28.36C93.15 28.52 93.59 28.6 94.05 28.6C94.7167 28.6 95.22 28.4733 95.56 28.22C95.9 27.9667 96.07 27.6367 96.07 27.23C96.07 26.9167 95.98 26.6667 95.8 26.48C95.62 26.2933 95.3967 26.15 95.13 26.05C94.8633 25.95 94.5033 25.8467 94.05 25.74C93.5367 25.6133 93.1233 25.49 92.81 25.37C92.5033 25.25 92.24 25.0667 92.02 24.82C91.8067 24.5667 91.7 24.23 91.7 23.81C91.7 23.47 91.79 23.16 91.97 22.88C92.15 22.5933 92.4233 22.3667 92.79 22.2C93.1633 22.0333 93.6267 21.95 94.18 21.95C94.5667 21.95 94.9467 22.0067 95.32 22.12C95.6933 22.2333 96.0167 22.3867 96.29 22.58L96.1 22.99C95.82 22.7967 95.51 22.65 95.17 22.55C94.8367 22.45 94.5067 22.4 94.18 22.4C93.5333 22.4 93.0433 22.53 92.71 22.79C92.3767 23.05 92.21 23.3867 92.21 23.8C92.21 24.1133 92.3 24.3633 92.48 24.55C92.66 24.7367 92.8833 24.88 93.15 24.98C93.4167 25.08 93.78 25.1867 94.24 25.3C94.7533 25.4267 95.1633 25.55 95.47 25.67C95.7767 25.79 96.0367 25.9733 96.25 26.22C96.47 26.46 96.58 26.7867 96.58 27.2C96.58 27.54 96.4867 27.85 96.3 28.13C96.12 28.41 95.84 28.6333 95.46 28.8C95.08 28.9667 94.6133 29.05 94.06 29.05ZM102.304 29.05C101.417 29.05 100.727 28.7933 100.234 28.28C99.7471 27.7667 99.5038 27.0167 99.5038 26.03V22H100.014V26.01C100.014 26.87 100.21 27.5133 100.604 27.94C100.997 28.3667 101.567 28.58 102.314 28.58C103.054 28.58 103.62 28.3667 104.014 27.94C104.407 27.5133 104.604 26.87 104.604 26.01V22H105.114V26.03C105.114 27.0167 104.867 27.7667 104.374 28.28C103.88 28.7933 103.19 29.05 102.304 29.05ZM108.743 22H109.253V28.54H113.283V29H108.743V22ZM116.529 22.46H114.009V22H119.559V22.46H117.039V29H116.529V22.46ZM122.074 22H122.584V29H122.074V22ZM131.973 22V29H131.553L126.783 22.92V29H126.273V22H126.703L131.463 28.08V22H131.973ZM140.667 25.53H141.157V28.15C140.851 28.4433 140.477 28.6667 140.037 28.82C139.604 28.9733 139.144 29.05 138.657 29.05C137.964 29.05 137.337 28.8967 136.777 28.59C136.224 28.2833 135.787 27.86 135.467 27.32C135.154 26.78 134.997 26.1733 134.997 25.5C134.997 24.8267 135.154 24.22 135.467 23.68C135.787 23.14 136.224 22.7167 136.777 22.41C137.337 22.1033 137.967 21.95 138.667 21.95C139.181 21.95 139.651 22.0333 140.077 22.2C140.511 22.36 140.881 22.5967 141.187 22.91L140.867 23.25C140.574 22.9567 140.244 22.7467 139.877 22.62C139.517 22.4867 139.117 22.42 138.677 22.42C138.077 22.42 137.534 22.5533 137.047 22.82C136.567 23.0867 136.191 23.4567 135.917 23.93C135.644 24.3967 135.507 24.92 135.507 25.5C135.507 26.0733 135.644 26.5967 135.917 27.07C136.197 27.5367 136.577 27.9067 137.057 28.18C137.537 28.4467 138.077 28.58 138.677 28.58C139.477 28.58 140.141 28.3667 140.667 27.94V25.53Z" fill="#494747"/>
</svg>
