<svg version="1.1" id="Lager_1" xmlns="http://www.w3.org/2000/svg" x="0" y="0" viewBox="0 0 305.74 60" style="enable-background:new 0 0 305.74 60" xml:space="preserve" height="35" width="auto"><style>.st1{fill:#333}</style><g id="Layer_3"><path class="st1" d="M46.41 52.32c-2.1 1.25-4.56 1.97-7.19 1.97-6.55 0-12.06-4.48-13.62-10.55-.29-1.12-.44-2.3-.44-3.52 0-7.77 6.3-14.07 14.07-14.07s14.07 6.3 14.07 14.07c0 2.63-.72 5.08-1.97 7.19a28.019 28.019 0 0 0 5.94-17.29C57.26 14.59 44.66 2 29.13 2 13.59 2 1 14.59 1 30.13s12.59 28.13 28.13 28.13c6.51 0 12.51-2.22 17.28-5.94zM83.85 5.76c0-1.54-1.26-2.8-2.8-2.8-1.57 0-2.82 1.26-2.82 2.8 0 1.57 1.26 2.8 2.82 2.8 1.54-.01 2.8-1.23 2.8-2.8zM91.15 5.76c0-1.54-1.26-2.8-2.8-2.8-1.57 0-2.82 1.26-2.82 2.8 0 1.57 1.26 2.8 2.82 2.8 1.55-.01 2.8-1.23 2.8-2.8zM177.42 13.88h4.32v15.69h5.23V13.88h4.32V9.45h-13.87zM74.16 19.71c0 5.87 4.66 10.53 10.53 10.53 5.87 0 10.56-4.67 10.56-10.53 0-5.87-4.69-10.59-10.56-10.59-5.86 0-10.53 4.72-10.53 10.59zm10.53-5.9c3.23 0 5.87 2.67 5.87 5.9 0 3.2-2.64 5.84-5.87 5.84-3.2 0-5.84-2.64-5.84-5.84.01-3.23 2.65-5.9 5.84-5.9zM114.67 9.94c0-.29-.23-.56-.56-.56h-3.58c-.32 0-.56.26-.56.56v13.82c0 1.47-.91 2.23-1.73 2.23-.79 0-1.14-.26-1.5-.62-.23-.23-.56-.21-.79 0l-2 1.97c-.18.21-.21.5-.06.73.5.62 1.91 2.14 4.46 2.14 3.43 0 6.31-2.35 6.31-6.43V9.94h.01zM140.6 9.57h-12.15c-.32 0-.56.26-.56.56v19.42c0 .29.23.56.56.56h12.15c.32 0 .56-.26.56-.56v-3.2c0-.29-.23-.56-.56-.56h-8.13v-3.96h6.69c.29 0 .56-.23.56-.56v-3.2a.58.58 0 0 0-.56-.56h-6.69v-3.64h8.13c.32 0 .56-.26.56-.56v-3.2c0-.28-.24-.54-.56-.54zM160.84 17.6c-2.32-.94-3.2-1.76-3.2-2.85 0-.79.79-1.5 1.85-1.5 1.79 0 3.93 1.61 4.2 1.76.26.21.79-.06 1-.38l1.5-2.26c.12-.21.18-.73-.18-.94-.88-.65-3.23-2.2-6.28-2.2-4.52 0-6.78 2.93-6.78 5.84 0 3.52 3.17 5.49 5.69 6.48 2 .79 3.02 1.73 3.02 2.96 0 1.03-.85 1.76-2.02 1.76-1.94 0-4.05-1.55-4.17-1.61-.21-.15-.76-.21-1 .18l-1.38 2.44c-.23.41-.15.53.15.82.67.67 2.79 2.26 6.6 2.26 4.31 0 6.92-3.05 6.92-6.07.01-3.99-3.63-5.78-5.92-6.69zM219.26 15.58c0-3.49-2.88-6.34-6.4-6.34h-8.77c-.32 0-.56.26-.56.56v19.42c0 .29.23.56.56.56h3.49c.29 0 .56-.26.56-.56v-7.48h2.02l3.9 7.77c.06.12.23.26.47.26h3.9c.5 0 .7-.47.5-.85l-4.02-7.45c2.56-1.02 4.35-3.19 4.35-5.89zm-6.78 2.44h-4.34v-4.58h4.34c1.2 0 2.23 1 2.23 2.23s-1.02 2.35-2.23 2.35zM231.76 29.93c.59 0 .91-.35 1.06-.7l1.06-2.35h7.98l1.06 2.32c.26.56.5.73 1.03.73h3.26c.44 0 .67-.38.5-.76l-9.18-19.75a.584.584 0 0 0-.5-.32h-.29c-.21 0-.41.15-.5.32l-9.18 19.75c-.18.38.06.76.5.76h3.2zm6.07-11.88h.03l2.23 4.84h-4.46l2.2-4.84zM256.62 29.78h3.49c.32 0 .56-.26.56-.56V18.28h.03l11.59 11.65c.06.06.29.15.38.15h.47c.29 0 .56-.23.56-.53V9.8a.58.58 0 0 0-.56-.56h-3.52c-.32 0-.56.26-.56.56v10.42h-.03L257.32 8.95h-.73c-.29 0-.56.23-.56.53l.03 19.75c0 .29.27.55.56.55zM294.29 9.24h-7.16c-.29 0-.53.26-.53.56v19.42c0 .29.23.56.53.56h7.16c5.66 0 10.3-4.61 10.3-10.3 0-5.63-4.64-10.24-10.3-10.24zm-.29 16.2h-2.82V13.56H294c3.32 0 5.72 2.61 5.72 5.93 0 3.34-2.41 5.95-5.72 5.95zM87.62 56.43c.07-.05.14-.2.14-.28 0-1.43-.02-2.89-.02-4.31 0-.18-.14-.34-.32-.34h-3.24c-.2 0-.34.14-.34.34v1.03c0 .18.14.32.34.32h1.75v2c-.18.07-1.19.61-2.67.61-2.53 0-4.47-2.14-4.47-4.61 0-2.49 1.94-4.63 4.47-4.63 1.09 0 2.19.48 3.03 1.21.18.16.32.18.46.02.27-.29.53-.55.8-.84.14-.14.12-.36-.02-.5-1.21-1.03-2.62-1.66-4.33-1.66-3.55 0-6.41 2.87-6.41 6.43s2.87 6.4 6.41 6.4c2.59-.02 4.42-1.19 4.42-1.19zM106.5 51.21c0-3.56-2.85-6.43-6.41-6.43s-6.4 2.87-6.4 6.43 2.83 6.4 6.4 6.4c3.56-.01 6.41-2.84 6.41-6.4zm-11.02 0c0-2.53 2.08-4.65 4.61-4.65 2.55 0 4.63 2.12 4.63 4.65 0 2.55-2.08 4.61-4.63 4.61-2.53 0-4.61-2.07-4.61-4.61zM119.93 57.09v-.98c0-.18-.14-.34-.34-.34h-4.83V45.29a.35.35 0 0 0-.34-.34h-1.18c-.2 0-.34.16-.34.34v11.79c0 .18.14.34.34.34h6.34c.21 0 .35-.16.35-.33zM128.76 57.09V52.4h4.76c.18 0 .34-.16.34-.34v-.98a.35.35 0 0 0-.34-.34h-4.76v-4.11h5.63c.2 0 .34-.16.34-.34v-1c0-.18-.14-.34-.34-.34h-7.13c-.2 0-.34.16-.34.34v11.79c0 .18.14.34.34.34h1.16c.18 0 .34-.16.34-.33zM159.36 55.87c.12-.12.16-.36.02-.48l-.82-.8c-.11-.09-.27-.11-.43.02-.86.66-1.76 1.18-3.06 1.18-2.55 0-4.49-2.12-4.49-4.61s1.92-4.63 4.47-4.63c1.1 0 2.24.46 3.08 1.19.16.16.32.16.45 0l.78-.8c.14-.14.14-.36-.02-.5-1.21-1.05-2.51-1.66-4.31-1.66-3.56 0-6.43 2.87-6.43 6.43s2.87 6.4 6.43 6.4c1.58-.01 3.12-.56 4.33-1.74zM173.11 57.09v-.98c0-.18-.14-.34-.34-.34h-4.83V45.29a.35.35 0 0 0-.34-.34h-1.18c-.2 0-.34.16-.34.34v11.79c0 .18.14.34.34.34h6.34c.21 0 .35-.16.35-.33zM188.71 52.77v-7.48a.35.35 0 0 0-.34-.34h-1.19c-.2 0-.34.16-.34.34v7.39c0 1.76-1.16 3.14-2.99 3.14-1.82 0-2.96-1.39-2.96-3.17v-7.36c0-.18-.14-.34-.34-.34h-1.19a.35.35 0 0 0-.34.34v7.48c0 2.71 2.03 4.83 4.83 4.83 2.81 0 4.86-2.12 4.86-4.83zM204.17 53.99c0-1.64-1.28-2.51-2.23-2.9.84-.48 1.85-1.46 1.85-2.83 0-1.87-1.55-3.3-3.71-3.3h-3.99c-.2 0-.34.16-.34.34v11.79c0 .18.14.34.34.34h4.19c2.25-.01 3.89-1.45 3.89-3.44zm-6.6-7.36h2.4c1.14 0 1.83.75 1.83 1.83 0 1.07-.69 1.91-1.83 1.91h-2.4v-3.74zm-.01 5.34H200c1.16 0 2.19.78 2.19 1.87 0 1.1-.84 1.94-1.92 1.94h-2.71v-3.81z"/></g></svg>